<svg xmlns="http://www.w3.org/2000/svg" viewBox="0 0 359.98 55.71"><defs><style>.cls-1{fill:#1f1f1c;}</style></defs><g id="Layer_2" data-name="Layer 2"><g id="Layer_1-2" data-name="Layer 1"><path class="cls-1" d="M351.63,13c-6.86-2.38-6.86-2.38-10.21,4-1.3-1.76-3.38-2-5.21-2.68-10.59-3.77-10.6-3.74-13.82,7.6-2-6.49-2-6.49-5.47-7.61-11.23-3.61-11.24-3.61-13.92,8-.57,2.44-2.27,5.34,2.66,5.17,2-.07,1.69,2.23,2,3.53,1.52,6.63,3,13.28,4.21,20,.46,2.52,1.58,3.4,4,3.05,9.21-1.29,18.44-2.43,27.62-3.86a12.61,12.61,0,0,0,10.66-9.29c1.52-4.91,2.91-9.86,4.29-14.82C361.13,16.33,361.11,16.32,351.63,13Zm-15,26.29c-4.56.58-9.13,1.15-13.66-.24-1.68-3.08-.58-6.46-1-9.67-.14-1,0-2.09,1.37-2.16a2.13,2.13,0,0,1,2.52,1.86c.44,2.95.81,5.91,1.21,8.87,9.44,1,9.44,1,12-10.84a15.89,15.89,0,0,1,2.25-8.7c1.18,3.45-.88,6-.28,8.62,1,.39,2.41-.23,2.84,1.41C345.09,33.08,341.37,38.72,336.67,39.33Z"/><path class="cls-1" d="M183.3,14.07a15.73,15.73,0,0,1-5.62-1.93c-4.46-2.31-6.41-.72-6.69,3.91q-1,5.57-2,11.13c1.51,1,4,1.17,2.88,4.22-1.27,3.55-.78,8.38-6.76,7.76a23.42,23.42,0,0,1-14.13,0c-1-3-.67-6.22-.8-9.34,0-1-.57-2.5,1.33-2.57,1.52-.07,2.52.47,2.72,2.17.33,2.79.76,5.57,1.15,8.36l9.61.13q1.16-5.37,2.33-10.72.78-5.43,1.57-10.86c-1.65-.72-3.27-1.52-5-2.14C153.63,10.46,153.62,10.47,151,21c.26,1,.44,2.18-.61,2.49-.77.22-1.18-.91-1.2-1.73-.05-1.92,0-3.84,0-5.76-1-1.4-2.68-1.27-4-1.59-3.63-.88-7.41-4.81-10.53-2.77-2.87,1.89-2.26,7-3.35,10.59-.72,2.38-2.27,5.29,2.59,5.25,2,0,1.71,2.16,2,3.53C137.3,37.52,138.79,44,140,50.5c.52,2.89,1.68,3.93,4.64,3.5,8.53-1.24,17.11-2.22,25.65-3.45,6.3-.91,10.71-4.27,12.51-10.56,1.73-6.06,3.22-12.2,5.16-18.19C189.42,17.18,188.67,14.53,183.3,14.07Z"/><path class="cls-1" d="M245.91,15c-8.58-.07-17.38,1.16-25.17-4.09-1.75-1.18-3-.39-3.6,1.78-1,3.7-1.95,7.41-3.27,11-1.16,3.17.11,3.95,2.89,3.53,3.66-.57,4.67,1.26,4.59,4.51a21.17,21.17,0,0,0,.56,5c.53,2.37-.18,3.6-2.69,3.3-3.91-.47-5.28,1.6-5.68,5.11a44.45,44.45,0,0,1-1.61,7.28c-1,3.33.25,3.78,3.2,3,5.45-1.48,10.91-3,16.59-3.34,2.73-.15,3.13-1.78,3.17-4,.11-5.65.46-11.3.5-16.95,0-2.58.44-4,3.55-3.87,2.69.14,4.38.52,4.5,3.79.21,5.81.67,11.62,1.32,17.4.2,1.74-1.18,4.71,2.48,4.87,4.48.19,9.53-2.54,9.75-5.32.44-5.81.84-11.61,1.26-17.41,0-.67.05-1.33.1-2C259.36,15.07,259.36,15.16,245.91,15Z"/><path class="cls-1" d="M53.21,15.08c-7.47,0-14.92.06-22.32-1.49-3.46-.72-6.92-5.1-9.9-2.44-2.32,2.07-2.57,6.62-3.37,10.15-.54,2.36-3.45,5.81,2.23,6.38,1.4.15.87,2.29.94,3.55.29,5.8.68,11.6.7,17.41,0,3.14.87,4.46,4.26,4.28,9.46-.49,18.92-.74,28.39-1,3.17-.07,4.8-1.12,4.64-4.62-.2-4.63-.05-9.28-.05-13.92h.54c.11-1.83.23-3.65.32-5.47.09-2,.18-4,.22-6C59.94,15.56,59.46,15.08,53.21,15.08ZM46.08,37.31c-.13,5.3-4.49.49-5.54,2.85-2.68-1.24-6.85,1.87-6.6-3.92.38-9,.15-9,5.79-9C45.67,27.22,46.3,28.17,46.08,37.31Z"/><path class="cls-1" d="M297.31,39.93c-1.87.08-1.91-1.23-1.7-2.77.66-4.94,1.09-9.9,1.76-14.84.91-6.79.6-7.22-6.05-7.25-5.31,0-10.65.38-15.71-1.91-7.49-3.39-7.51-3.34-9.75,4.58,0,.16-.06.32-.11.48-2.57,9-2.57,9,6.7,9s8.8.06,9.86,6.9c.75,4.86-.78,5.82-5.31,5.7-11.06-.29-11.07-.09-13.73,10.59-.08.32-.11.66-.22,1-1.24,3.46.4,4,3.35,3.41a156.24,156.24,0,0,1,29.18-3.24c5.55-.13,3.12-5.27,4.44-8C301.08,41.4,300.21,39.81,297.31,39.93Z"/><path class="cls-1" d="M119.27,15.07h-2.49v.11c-3-.13-6-.38-9-.36-2.45,0-3-.86-2.76-3.31.88-7.37.77-7.38-6.21-9.47A44.13,44.13,0,0,1,94.57.69C91.13-.74,89.81-.1,90.15,4c.56,6.76,1.8,13.55.57,20.36-.42,2.32.51,2.95,2.64,2.9,3.32-.09,6.67.21,10-.07,3.81-.33,4,1.1,3.07,4.28-1.87,6-3.41,12.13-5,18.23-.28,1.11-1.41,2.54.44,3.45,3.07,1.5,12-2.08,13.29-5.34q4.88-12,9.74-24C128.43,15.08,128.42,15.08,119.27,15.07Z"/><path class="cls-1" d="M79.45,14.14c-4-.74-7.86-6.45-11.43-2.75-2.61,2.69-2.41,8.08-3.55,12.24-.64,2.34-.53,4.09,2.55,3.63,3.65-.55,4,1.53,4.1,4.39.22,5.63.59,11.27,1.19,16.87.19,1.73-.87,5.46,2.7,4.42,3.32-1,8.75.59,9.27-5.22.72-8.09,1.1-16.22,1.62-24.33C86.28,15.85,86.36,15.42,79.45,14.14Z"/><path class="cls-1" d="M3.87,40.12c-6.45.33-2.7,6.42-3.48,9.65-1,4.21,3.65,1,5,2.23,7,0,7.5-.49,7.58-7.3C13.07,37.25,6.81,40,3.87,40.12Z"/></g></g></svg>