<svg xmlns="http://www.w3.org/2000/svg" viewBox="0 0 261.33 299.08"><defs><style>.cls-1{fill:#161616;}</style></defs><g id="Layer_2" data-name="Layer 2"><g id="Layer_1-2" data-name="Layer 1"><path class="cls-1" d="M260.52,56.2c-2.48-7.21-8.21-9.12-15-9.18-11.17-.1-22.33-.24-33.49,0a8.83,8.83,0,0,1-8.57-4.66c-4.83-7.77-10.13-15.26-14.86-23.09C180.68,6.11,169.38-.32,153.9,0c-16.33.34-32.66,0-49,.09C92.56.16,82.76,5,75.89,15.56c-5.28,8.08-11.33,15.69-16,24.09-3.52,6.3-8.07,7.62-14.67,7.4-11.14-.36-22.34-.31-33.45.44C2.64,48.1-2.19,56.86,1,65.43c2.55,6.94,8.25,8.81,14.75,8.74,3.78,0,5.38,1,5.61,4.93C22,90.23,23,101.33,23.8,112.45c1.47,20.41,2.8,40.84,4.32,61.26,2.19,29.54,4.81,59,6.66,88.62C36.16,284.36,51,299,73.24,299h57.49c20.16,0,40.33.11,60.49,0,16.21-.12,31.34-12.5,34-28.47,1.7-10.13,2.28-20.46,3-30.73,1.61-21.74,2.94-43.5,4.52-65.24,2.22-30.7,4.57-61.4,6.87-92.1.55-7.39-.24-8.39,8-8.39C257.59,74.07,263.58,65.12,260.52,56.2ZM100.88,28.5c.76-1,3.08-1,4.69-1,16.64-.06,33.29.05,49.93-.1A9.26,9.26,0,0,1,164.19,32c2.8,4.44,5.77,8.79,9.43,14.34H88.06C92.84,39.6,96.67,33.9,100.88,28.5Zm112,51c-1.43,17.91-2.61,35.85-3.91,53.77q-3.51,48.54-7.05,97.09-1.11,15.43-2.1,30.87c-.43,6.62-4.14,10.63-10.77,10.65q-58.21.13-116.44,0c-6.61,0-10.5-3.93-11-10.47q-3-42.06-6.06-84.12-3.44-47.78-6.9-95.57c-.54-7.42-.52-7.42,7-7.42h75c25.66,0,51.31.08,77-.09C211.64,74.16,213.19,75.18,212.85,79.47Z"/></g></g></svg>